<svg width="67" height="24" viewBox="0 0 67 24" fill="none" xmlns="http://www.w3.org/2000/svg">
<path d="M26.3828 4.98056V16.314L27.8412 16.3252V10.9256H31.3593V9.5006H27.8412V6.4056H32.4169V4.98056H26.3828ZM35.0444 7.28511C35.5676 7.28511 36.0018 6.86205 36.0018 6.32767C36.0018 5.79328 35.5787 5.37022 35.0444 5.37022C34.5211 5.37022 34.0869 5.79328 34.0869 6.32767C34.0869 6.86205 34.51 7.28511 35.0444 7.28511ZM34.2984 8.71015V16.3252H35.7569V8.71015H34.2984ZM41.1676 8.48748C39.2304 8.48748 37.8833 10.1241 37.8833 12.0723C37.8833 14.0206 39.2304 15.6572 41.1676 15.6572C42.0582 15.6572 42.7819 15.3232 43.3162 14.7554V15.7685C43.3274 17.0266 42.3254 18.0731 41.0562 18.0842C41.0451 18.0842 41.0451 18.0842 41.034 18.0842C40.5664 18.0842 40.1099 17.9061 39.7425 17.65L39.0077 18.9192C40.7445 20.0436 43.0602 19.5426 44.1735 17.8059C44.5632 17.1936 44.7747 16.4922 44.7747 15.7685V8.72128H43.3162V9.4004C42.7819 8.83261 42.0582 8.48748 41.1676 8.48748ZM39.3417 12.0723C39.3417 10.8588 40.2658 9.91252 41.3346 9.91252C42.4033 9.91252 43.3162 10.87 43.3162 12.0723C43.3162 13.2858 42.3922 14.221 41.3346 14.221C40.2658 14.221 39.3417 13.2747 39.3417 12.0723ZM50.0295 9.91252C49.1611 9.92365 48.4597 10.6362 48.4709 11.5046V16.314H47.0124V8.69901H48.4709V9.4004C48.9162 8.81035 49.6064 8.47635 50.3524 8.48748C51.3766 8.48748 52.1671 8.98847 52.6124 9.76779C53.1245 8.97734 53.9929 8.49862 54.9281 8.48748C56.5869 8.48748 57.6223 9.82345 57.6223 11.4823V16.314H56.175V11.5046C56.175 10.6362 55.4847 9.92365 54.6163 9.91252C53.748 9.92365 53.0466 10.6362 53.0577 11.5046V16.314H51.5881V11.5046C51.5881 10.6362 50.8979 9.92365 50.0295 9.91252ZM65.3932 9.5674C64.7252 8.86601 63.79 8.47635 62.8214 8.48748C60.6505 8.48748 59.1141 10.3244 59.1141 12.5065C59.1141 14.6997 60.6505 16.5256 62.8214 16.5256C63.79 16.5256 64.714 16.1359 65.3932 15.4457V16.314H66.8516V8.69901H65.3932V9.5674ZM60.5725 12.5065C60.5725 11.0592 61.6858 9.90139 62.9884 9.90139C64.2799 9.91252 65.3932 11.0592 65.3932 12.5065C65.3932 13.9538 64.2799 15.1005 62.9773 15.1005C61.697 15.1117 60.5725 13.965 60.5725 12.5065Z" fill="#ACACAC"/>
<path d="M7.5459 12.0055C7.5459 9.93479 9.22699 8.25369 11.2977 8.25369C13.3685 8.25369 15.0496 9.93479 15.0496 12.0055C15.0496 14.0763 13.3685 15.7574 11.2977 15.7574C9.22699 15.7574 7.5459 14.0763 7.5459 12.0055Z" fill="#ACACAC"/>
<path d="M0.0532227 19.4982C0.0532227 17.4274 1.73432 15.7463 3.80507 15.7463H7.55693V19.4982C7.55693 21.5689 5.87583 23.25 3.80507 23.25C1.73432 23.25 0.0532227 21.5689 0.0532227 19.4982Z" fill="#ACACAC"/>
<path d="M7.5459 0.761134V8.25371H11.2977C13.3685 8.25371 15.0496 6.57261 15.0496 4.50185C15.0496 2.4311 13.3685 0.75 11.2977 0.75H7.5459V0.761134Z" fill="#ACACAC"/>
<path d="M0.0532227 4.51302C0.0532227 6.58378 1.73432 8.26487 3.80507 8.26487H7.55693V0.772302H3.80507C1.73432 0.761169 0.0532227 2.44226 0.0532227 4.51302Z" fill="#ACACAC"/>
<path d="M0.0532227 12.0055C0.0532227 14.0763 1.73432 15.7574 3.80507 15.7574H7.55693V8.26483H3.80507C1.73432 8.25369 0.0532227 9.93479 0.0532227 12.0055Z" fill="#ACACAC"/>
</svg>
