<svg width="551" height="122" viewBox="0 0 551 122" fill="none" xmlns="http://www.w3.org/2000/svg">
<path fill-rule="evenodd" clip-rule="evenodd" d="M81.7603 0V122H40.8802L40.88 40.666L0 40.6667V0H81.7603ZM144.12 0L144.12 81.334L185 81.3333V122H103.24V0H144.12Z" fill="#1E1E1E"/>
<path d="M238.687 39.5192V9.60136H250.124V1.48082H217V9.60136H228.437V39.5192H238.687ZM284.435 39.5192V24.7206H288.103C290.225 24.7206 291.574 25.4329 292.149 26.8575L297.113 39.5192H307.848L303.317 28.1931C302.813 26.8753 302.13 25.8247 301.267 25.0411C300.403 24.2575 299.432 23.7589 298.353 23.5452C300.871 22.7617 302.822 21.4349 304.207 19.5651C305.591 17.6952 306.284 15.4781 306.284 12.9137C306.284 9.2452 305.115 6.42261 302.777 4.44589C300.439 2.46918 296.951 1.48082 292.311 1.48082H274.454V39.5192H284.435ZM290.693 17.2411H284.327V9.06712H290.693C292.887 9.06712 294.46 9.38767 295.413 10.0288C296.366 10.6699 296.843 11.7205 296.843 13.1808C296.843 14.5699 296.357 15.5938 295.386 16.2527C294.415 16.9117 292.851 17.2411 290.693 17.2411ZM338.059 39.5192L341.458 31.6658H358.505L361.904 39.5192H371.884L353.866 1.48082H345.881L327.917 39.5192H338.059ZM355.214 24.1329H344.748L349.981 12.1123L355.214 24.1329ZM411.212 39.5192L428.691 1.48082H418.495L407.274 27.0178L396.215 1.48082H385.695L403.174 39.5192H411.212ZM461.276 39.5192V1.48082H451.134V39.5192H461.276ZM502.33 40C507.617 40 511.717 38.9404 514.63 36.8212C517.543 34.702 519 31.7904 519 28.0863C519 26.1274 518.586 24.4445 517.759 23.0377C516.932 21.6308 515.52 20.402 513.524 19.3514C511.528 18.3007 508.786 17.4014 505.297 16.6534C503.139 16.1904 501.521 15.7541 500.442 15.3445C499.363 14.9349 498.626 14.5164 498.23 14.089C497.834 13.6616 497.637 13.1274 497.637 12.4863C497.637 11.311 498.194 10.376 499.309 9.6815C500.424 8.98698 501.899 8.63972 503.733 8.63972C505.603 8.63972 507.473 8.95137 509.343 9.57466C511.214 10.1979 512.994 11.0973 514.684 12.2726L517.813 5.16712C516.339 3.92055 514.298 2.91438 511.69 2.14863C509.083 1.38288 506.394 1 503.625 1C500.532 1 497.781 1.52534 495.371 2.57603C492.961 3.62671 491.091 5.08699 489.76 6.95685C488.43 8.82671 487.764 10.9192 487.764 13.2343C487.764 15.2644 488.169 16.9918 488.978 18.4164C489.787 19.8411 491.199 21.0788 493.213 22.1295C495.227 23.1801 498.05 24.0616 501.683 24.774C504.56 25.3795 506.52 25.9938 507.563 26.6171C508.606 27.2404 509.128 28.0329 509.128 28.9945C509.128 30.063 508.552 30.8911 507.401 31.4788C506.25 32.0664 504.596 32.3603 502.438 32.3603C500.316 32.3603 498.203 32.0486 496.099 31.4253C493.995 30.8021 492.008 29.9027 490.138 28.7274L486.955 35.8329C488.717 37.1151 491.001 38.1301 493.806 38.8781C496.612 39.626 499.453 40 502.33 40Z" fill="#1E1E1E"/>
<path d="M300.44 121.519V113.399H284.165V83.4808H274V121.519H300.44ZM353.05 121.519V113.826H335.477V106.026H351.915V98.3329H335.477V91.174H353.05V83.4808H325.583V121.519H353.05ZM391.926 122C397.225 122 401.335 120.94 404.254 118.821C407.174 116.702 408.634 113.79 408.634 110.086C408.634 108.127 408.219 106.445 407.39 105.038C406.561 103.631 405.147 102.402 403.146 101.351C401.145 100.301 398.397 99.4014 394.9 98.6534C392.737 98.1904 391.115 97.7541 390.034 97.3445C388.953 96.9349 388.214 96.5164 387.817 96.089C387.421 95.6616 387.222 95.1274 387.222 94.4863C387.222 93.311 387.781 92.376 388.898 91.6815C390.016 90.987 391.494 90.6397 393.332 90.6397C395.207 90.6397 397.081 90.9514 398.956 91.5747C400.83 92.1979 402.614 93.0973 404.308 94.2726L407.444 87.1671C405.967 85.9206 403.921 84.9144 401.308 84.1486C398.694 83.3829 396 83 393.224 83C390.124 83 387.367 83.5253 384.951 84.576C382.536 85.6267 380.662 87.087 379.328 88.9568C377.994 90.8267 377.328 92.9192 377.328 95.2343C377.328 97.2644 377.733 98.9918 378.544 100.416C379.355 101.841 380.77 103.079 382.789 104.129C384.807 105.18 387.637 106.062 391.278 106.774C394.161 107.379 396.126 107.994 397.171 108.617C398.217 109.24 398.739 110.033 398.739 110.995C398.739 112.063 398.162 112.891 397.009 113.479C395.855 114.066 394.197 114.36 392.035 114.36C389.908 114.36 387.79 114.049 385.681 113.425C383.573 112.802 381.581 111.903 379.707 110.727L376.516 117.833C378.283 119.115 380.572 120.13 383.383 120.878C386.195 121.626 389.043 122 391.926 122ZM461.028 121.519V113.399H444.753V83.4808H434.588V121.519H461.028ZM496.335 121.519V83.4808H486.17V121.519H496.335ZM551 121.519V113.826H533.427V106.026H549.865V98.3329H533.427V91.174H551V83.4808H523.532V121.519H551Z" fill="#1E1E1E"/>
</svg>
