<svg width="794" height="365" viewBox="0 0 794 365" fill="none" xmlns="http://www.w3.org/2000/svg">
<path fill-rule="evenodd" clip-rule="evenodd" d="M203.76 121V243H162.88L162.88 161.666L122 161.667V121H203.76ZM266.12 121L266.12 202.334L307 202.333V243H225.24V121H266.12Z" fill="black"/>
<path d="M360.687 160.519V130.601H372.124V122.481H339V130.601H350.437V160.519H360.687ZM406.435 160.519V145.721H410.103C412.225 145.721 413.574 146.433 414.149 147.858L419.113 160.519H429.848L425.317 149.193C424.813 147.875 424.13 146.825 423.267 146.041C422.403 145.258 421.432 144.759 420.353 144.545C422.871 143.762 424.822 142.435 426.207 140.565C427.591 138.695 428.284 136.478 428.284 133.914C428.284 130.245 427.115 127.423 424.777 125.446C422.439 123.469 418.951 122.481 414.311 122.481H396.454V160.519H406.435ZM412.693 138.241H406.327V130.067H412.693C414.887 130.067 416.46 130.388 417.413 131.029C418.366 131.67 418.843 132.721 418.843 134.181C418.843 135.57 418.357 136.594 417.386 137.253C416.415 137.912 414.851 138.241 412.693 138.241ZM460.059 160.519L463.458 152.666H480.505L483.904 160.519H493.884L475.866 122.481H467.881L449.917 160.519H460.059ZM477.214 145.133H466.748L471.981 133.112L477.214 145.133ZM533.212 160.519L550.691 122.481H540.495L529.274 148.018L518.215 122.481H507.695L525.174 160.519H533.212ZM583.276 160.519V122.481H573.134V160.519H583.276ZM624.33 161C629.617 161 633.717 159.94 636.63 157.821C639.543 155.702 641 152.79 641 149.086C641 147.127 640.586 145.445 639.759 144.038C638.932 142.631 637.52 141.402 635.524 140.351C633.528 139.301 630.786 138.401 627.297 137.653C625.139 137.19 623.521 136.754 622.442 136.345C621.363 135.935 620.626 135.516 620.23 135.089C619.834 134.662 619.637 134.127 619.637 133.486C619.637 132.311 620.194 131.376 621.309 130.682C622.424 129.987 623.899 129.64 625.733 129.64C627.603 129.64 629.473 129.951 631.343 130.575C633.214 131.198 634.994 132.097 636.684 133.273L639.813 126.167C638.339 124.921 636.298 123.914 633.69 123.149C631.083 122.383 628.394 122 625.625 122C622.532 122 619.781 122.525 617.371 123.576C614.961 124.627 613.091 126.087 611.76 127.957C610.43 129.827 609.764 131.919 609.764 134.234C609.764 136.264 610.169 137.992 610.978 139.416C611.787 140.841 613.199 142.079 615.213 143.129C617.227 144.18 620.05 145.062 623.683 145.774C626.56 146.379 628.52 146.994 629.563 147.617C630.606 148.24 631.128 149.033 631.128 149.995C631.128 151.063 630.552 151.891 629.401 152.479C628.25 153.066 626.596 153.36 624.438 153.36C622.316 153.36 620.203 153.049 618.099 152.425C615.995 151.802 614.008 150.903 612.138 149.727L608.955 156.833C610.717 158.115 613.001 159.13 615.806 159.878C618.612 160.626 621.453 161 624.33 161Z" fill="black"/>
<path d="M422.44 242.519V234.399H406.165V204.481H396V242.519H422.44ZM475.05 242.519V234.826H457.477V227.026H473.915V219.333H457.477V212.174H475.05V204.481H447.583V242.519H475.05ZM513.926 243C519.225 243 523.335 241.94 526.254 239.821C529.174 237.702 530.634 234.79 530.634 231.086C530.634 229.127 530.219 227.445 529.39 226.038C528.561 224.631 527.147 223.402 525.146 222.351C523.145 221.301 520.397 220.401 516.9 219.653C514.737 219.19 513.115 218.754 512.034 218.345C510.953 217.935 510.214 217.516 509.817 217.089C509.421 216.662 509.222 216.127 509.222 215.486C509.222 214.311 509.781 213.376 510.898 212.682C512.016 211.987 513.494 211.64 515.332 211.64C517.207 211.64 519.081 211.951 520.956 212.575C522.83 213.198 524.614 214.097 526.308 215.273L529.444 208.167C527.967 206.921 525.921 205.914 523.308 205.149C520.694 204.383 518 204 515.224 204C512.124 204 509.367 204.525 506.951 205.576C504.536 206.627 502.662 208.087 501.328 209.957C499.994 211.827 499.328 213.919 499.328 216.234C499.328 218.264 499.733 219.992 500.544 221.416C501.355 222.841 502.77 224.079 504.789 225.129C506.807 226.18 509.637 227.062 513.278 227.774C516.161 228.379 518.126 228.994 519.171 229.617C520.217 230.24 520.739 231.033 520.739 231.995C520.739 233.063 520.162 233.891 519.009 234.479C517.855 235.066 516.197 235.36 514.035 235.36C511.908 235.36 509.79 235.049 507.681 234.425C505.573 233.802 503.581 232.903 501.707 231.727L498.516 238.833C500.283 240.115 502.572 241.13 505.383 241.878C508.195 242.626 511.043 243 513.926 243ZM583.028 242.519V234.399H566.753V204.481H556.588V242.519H583.028ZM618.335 242.519V204.481H608.17V242.519H618.335ZM673 242.519V234.826H655.427V227.026H671.865V219.333H655.427V212.174H673V204.481H645.532V242.519H673Z" fill="black"/>
</svg>
