<svg width="77" height="24" viewBox="0 0 77 24" fill="none" xmlns="http://www.w3.org/2000/svg">
<path d="M11.7794 1.71432C11.858 1.76858 11.9366 1.82279 12.0152 1.87695C12.0948 1.93237 12.1744 1.98785 12.2539 2.0434C12.311 2.08281 12.311 2.08281 12.3692 2.12301C12.4606 2.18777 12.5489 2.25682 12.6365 2.32656C12.6365 2.36697 12.6365 2.40738 12.6365 2.449C12.6703 2.46338 12.7041 2.47773 12.7389 2.49255C12.9178 2.59158 13.0526 2.71623 13.2029 2.85463C13.2575 2.90466 13.3121 2.95469 13.3684 3.00624C13.4304 3.06379 13.4304 3.06379 13.4937 3.12247C13.7814 2.91475 14.0415 2.70399 14.2896 2.449C14.5113 2.26534 14.5113 2.26534 14.6569 2.26534C14.6569 2.22493 14.6569 2.18452 14.6569 2.14289C14.842 1.98548 15.0466 1.85259 15.2462 1.71432C15.3292 1.65536 15.3292 1.65536 15.4139 1.59522C15.6837 1.40694 15.9239 1.24102 16.2488 1.1633C16.2488 1.12289 16.2488 1.08248 16.2488 1.04085C16.3397 1.00297 16.3397 1.00297 16.4325 0.964318C16.5972 0.894204 16.7559 0.817556 16.9146 0.734726C17.175 0.603537 17.438 0.508458 17.7182 0.428604C17.7618 0.415899 17.8055 0.403191 17.8504 0.390101C18.6513 0.193665 19.556 0.209744 20.2896 0.612277C20.3098 0.67289 20.33 0.733502 20.3508 0.795951C20.4313 0.838901 20.5131 0.879539 20.5957 0.9184C20.7029 1.01024 20.7029 1.01024 20.7794 1.10207C20.7794 1.14248 20.7794 1.18289 20.7794 1.22452C20.8198 1.22452 20.8602 1.22452 20.9018 1.22452C21.5978 2.51231 21.6608 3.70004 21.6365 5.14288C21.6358 5.18872 21.635 5.23457 21.6342 5.28179C21.6182 5.96295 21.4935 6.61332 21.3519 7.27793C21.3238 7.42646 21.3238 7.42646 21.3304 7.65308C21.3977 7.67165 21.4651 7.69019 21.5344 7.70929C22.0012 7.84053 22.4486 7.97679 22.8859 8.18953C23.0549 8.27018 23.2264 8.33838 23.4006 8.40693C24.028 8.66806 24.5921 9.01719 25.1418 9.41329C25.1812 9.44145 25.2206 9.46959 25.2613 9.49859C25.4569 9.64349 25.5792 9.7573 25.6774 9.97961C25.7381 9.99982 25.7986 10.02 25.861 10.0408C25.861 10.0812 25.861 10.1217 25.861 10.1633C25.8963 10.1755 25.9313 10.1876 25.9678 10.2001C26.1593 10.3188 26.2482 10.4857 26.3584 10.6761C26.3797 10.7114 26.401 10.7468 26.4228 10.7832C26.7615 11.3516 26.8761 11.926 26.749 12.5865C26.6036 13.1093 26.3942 13.5951 25.9835 13.9592C25.8902 14.0533 25.7969 14.1477 25.7041 14.2424C25.5409 14.4082 25.382 14.5649 25.1876 14.6939C25.1472 14.6939 25.1067 14.6939 25.0651 14.6939C25.0651 14.7343 25.0651 14.7747 25.0651 14.8163C24.9162 14.9167 24.7683 15.0092 24.6136 15.0995C24.5708 15.1253 24.528 15.151 24.484 15.1775C24.1634 15.3674 24.1634 15.3674 24.0243 15.3674C24.0243 15.4078 24.0243 15.4482 24.0243 15.4898C23.7999 15.5922 23.5754 15.6942 23.3508 15.7959C23.3027 15.8178 23.2546 15.8397 23.2049 15.8622C21.855 16.4694 21.855 16.4694 21.3304 16.4694C21.3467 16.5436 21.3629 16.6178 21.3797 16.6942C21.7882 18.6088 21.9957 20.7667 21.1467 22.5919C21.1063 22.5919 21.0659 22.5919 21.0243 22.5919C21.0129 22.6323 21.0016 22.6727 20.9899 22.7143C20.7438 23.2278 20.3284 23.5579 19.7998 23.7551C18.3628 24.0977 17.063 23.5816 15.8398 22.8391C15.7954 22.8118 15.7511 22.7845 15.7054 22.7564C15.662 22.7299 15.6186 22.7034 15.5739 22.6762C15.4701 22.6108 15.3693 22.5405 15.2692 22.4694C15.2692 22.429 15.2692 22.3886 15.2692 22.347C15.2257 22.3317 15.1822 22.3163 15.1374 22.3006C14.9443 22.2164 14.792 22.1122 14.6225 21.9873C14.5372 21.925 14.5372 21.925 14.4501 21.8615C14.3026 21.745 14.1696 21.6302 14.0447 21.4898C14.0447 21.4494 14.0447 21.409 14.0447 21.3674C14.0093 21.3623 13.974 21.3573 13.9376 21.3521C13.7623 21.2937 13.6808 21.1935 13.5549 21.0612C13.509 21.1042 13.463 21.1471 13.4157 21.1914C11.711 22.7755 11.711 22.7755 11.2284 22.7755C11.2284 22.8159 11.2284 22.8563 11.2284 22.898C11.1791 22.922 11.1299 22.946 11.0791 22.9707C10.9686 23.0269 10.858 23.0836 10.7527 23.1491C10.4354 23.3431 10.1061 23.4684 9.75517 23.5868C9.70891 23.6026 9.66262 23.6184 9.61496 23.6347C9.13278 23.7921 8.67206 23.8274 8.16715 23.8278C8.12091 23.8286 8.07465 23.8293 8.02702 23.8301C7.39553 23.8317 6.87279 23.6428 6.395 23.2216C5.2718 22.0304 5.36907 20.3784 5.41205 18.8572C5.453 18.0913 5.59173 17.3347 5.7794 16.5919C5.72082 16.5735 5.72082 16.5735 5.66104 16.5547C4.83485 16.293 4.03739 16.0156 3.26919 15.6123C3.23153 15.5927 3.19386 15.5732 3.15507 15.553C2.65876 15.2923 2.215 14.9886 1.77805 14.6389C1.61601 14.5065 1.61601 14.5065 1.43246 14.3878C1.43246 14.3474 1.43246 14.307 1.43246 14.2653C1.37753 14.2421 1.37753 14.2421 1.32149 14.2185C1.09066 14.0882 0.969664 13.8668 0.820218 13.6531C0.777282 13.5963 0.734349 13.5395 0.690116 13.4809C0.352944 12.9077 0.171188 12.2425 0.303874 11.5827C0.423731 11.1215 0.596883 10.7325 0.881442 10.347C0.92185 10.347 0.962259 10.347 1.00389 10.347C1.00389 10.2863 1.00389 10.2257 1.00389 10.1633C1.124 10.0585 1.24652 9.95645 1.37124 9.85717C1.39144 9.81676 1.41165 9.77635 1.43246 9.73472C1.49307 9.73472 1.55369 9.73472 1.61614 9.73472C1.63634 9.6741 1.65654 9.61349 1.67736 9.55104C1.77279 9.46616 1.77279 9.46616 1.88782 9.38652C1.92562 9.35975 1.96343 9.33301 2.00238 9.30544C2.10593 9.24492 2.10593 9.24492 2.22838 9.24492C2.22838 9.20451 2.22838 9.1641 2.22838 9.12247C2.27202 9.09881 2.31567 9.07513 2.36064 9.05074C2.41927 9.01886 2.47791 8.98697 2.53833 8.9541C2.6002 8.9205 2.66209 8.88688 2.72584 8.85223C2.85899 8.77878 2.98969 8.70333 3.11995 8.62503C3.33167 8.50957 3.54208 8.42155 3.76665 8.33493C3.97161 8.25389 4.17306 8.166 4.37505 8.07784C4.866 7.86722 5.30726 7.70157 5.84062 7.65308C5.8141 7.58363 5.7876 7.5142 5.76027 7.44264C5.17438 5.67661 5.13843 3.26782 5.92097 1.57656C6.07359 1.28457 6.26133 1.01039 6.51409 0.795951C6.5747 0.795951 6.63531 0.795951 6.69776 0.795951C6.71797 0.735338 6.73817 0.674726 6.75899 0.612277C8.26883 -0.381043 10.5221 0.822265 11.7794 1.71432ZM7.70415 1.54595C7.65987 1.56016 7.61559 1.57436 7.56997 1.589C7.08558 1.81477 6.9336 2.21522 6.75899 2.6939C6.32777 4.17749 6.59834 5.81221 6.94266 7.28574C7.2794 7.29399 7.57874 7.26842 7.91077 7.20157C7.97515 7.18895 7.97515 7.18895 8.04081 7.17612C8.22213 7.14061 8.40321 7.10388 8.58424 7.06692C9.00135 6.98544 9.41941 6.94178 9.84252 6.90524C10.0976 6.88136 10.3254 6.85873 10.5549 6.73472C10.6092 6.60977 10.6092 6.60977 10.6161 6.48982C10.6565 6.48982 10.6969 6.48982 10.7386 6.48982C10.8204 6.37655 10.8974 6.25979 10.972 6.14162C11.139 5.87701 11.312 5.66809 11.5345 5.449C11.6284 5.32812 11.7202 5.20562 11.81 5.08166C11.9505 4.88779 12.0854 4.71448 12.2558 4.54594C12.406 4.42592 12.406 4.42592 12.3916 4.28574C12.4725 4.24533 12.5533 4.20492 12.6365 4.16329C12.6202 4.04177 12.6202 4.04177 12.5753 3.91839C12.4844 3.8881 12.4844 3.8881 12.3916 3.85717C12.3495 3.77623 12.3088 3.6945 12.2692 3.61227C12.1746 3.51438 12.1746 3.51438 12.0623 3.42717C12.0008 3.37726 12.0008 3.37726 11.9381 3.32637C11.8728 3.2747 11.8728 3.2747 11.8062 3.22197C11.7617 3.18641 11.7173 3.15086 11.6715 3.11424C11.0185 2.59606 10.3246 2.19942 9.57531 1.83677C9.50838 1.80394 9.44148 1.77111 9.37252 1.73728C8.84589 1.54091 8.25551 1.36052 7.70415 1.54595ZM17.1059 2.02044C16.9913 2.07822 16.8765 2.13562 16.7616 2.19264C16.7102 2.21828 16.6589 2.24393 16.6061 2.27036C16.569 2.28891 16.5319 2.30746 16.4937 2.32656C16.4937 2.36697 16.4937 2.40738 16.4937 2.449C16.4196 2.467 16.4196 2.467 16.344 2.48537C16.0513 2.60113 15.8296 2.7767 15.583 2.96941C15.535 3.0058 15.487 3.04219 15.4376 3.07966C15.2565 3.21764 15.2565 3.21764 15.0855 3.36737C15.0855 3.40778 15.0855 3.44819 15.0855 3.48982C15.0527 3.50373 15.0199 3.51761 14.986 3.53192C14.7337 3.67139 14.5059 3.8205 14.412 4.10206C14.4555 4.14928 14.499 4.19647 14.5438 4.24508C14.6007 4.30712 14.6575 4.36912 14.7144 4.43116C14.743 4.46226 14.7717 4.49334 14.8013 4.52539C15.0174 4.76167 15.0174 4.76167 15.0855 4.89798C15.1259 4.89798 15.1663 4.89798 15.208 4.89798C15.2282 4.94581 15.2282 4.94581 15.2489 4.99462C15.3617 5.19979 15.5088 5.37485 15.6557 5.55614C15.8473 5.79551 16.0328 6.03152 16.1914 6.29468C16.2878 6.49232 16.2878 6.49232 16.4325 6.55104C16.4495 6.5913 16.4665 6.63157 16.4841 6.67303C16.5436 6.8061 16.5436 6.8061 16.6754 6.84235C16.7521 6.85347 16.7521 6.85347 16.8304 6.86483C16.9211 6.87845 16.9211 6.87845 17.0136 6.89233C17.3083 6.92811 17.6034 6.9598 17.8987 6.99066C18.354 7.03979 18.802 7.11872 19.252 7.20267C19.536 7.25473 19.8211 7.30031 20.1059 7.34696C20.5164 5.67928 20.8279 3.66154 19.9811 2.08573C19.7945 1.78152 19.533 1.56153 19.1876 1.46942C18.4474 1.3762 17.7433 1.67374 17.1059 2.02044ZM13.4937 4.89798C13.31 5.08623 13.31 5.08623 13.2488 5.32655C13.1882 5.34676 13.1276 5.36696 13.0651 5.38778C12.9351 5.52524 12.9351 5.52524 12.8087 5.69008C12.743 5.77237 12.743 5.77237 12.676 5.85629C12.5636 5.98751 12.5636 5.98751 12.5753 6.12247C12.5349 6.12247 12.4945 6.12247 12.4529 6.12247C12.4434 6.1812 12.4434 6.1812 12.4337 6.2411C12.4199 6.28278 12.406 6.32444 12.3916 6.36737C12.331 6.38757 12.2704 6.40778 12.208 6.42859C12.1474 6.52961 12.0867 6.63063 12.0243 6.73472C13.0143 6.73472 14.0043 6.73472 15.0243 6.73472C14.9435 6.59329 14.8627 6.45186 14.7794 6.30614C14.739 6.30614 14.6986 6.30614 14.6569 6.30614C14.6569 6.24553 14.6569 6.18492 14.6569 6.12247C14.5884 6.05182 14.5191 5.98166 14.447 5.91465C14.2855 5.74952 14.1539 5.5609 14.0172 5.37512C13.9859 5.3389 13.9545 5.30265 13.9223 5.26533C13.8818 5.26533 13.8414 5.26533 13.7998 5.26533C13.7796 5.20472 13.7594 5.1441 13.7386 5.08166C13.6982 5.08166 13.6578 5.08166 13.6161 5.08166C13.5959 5.02104 13.5757 4.96043 13.5549 4.89798C13.5347 4.89798 13.5145 4.89798 13.4937 4.89798ZM11.7029 7.87121C11.6461 7.87344 11.5894 7.87567 11.5309 7.87797C11.243 7.89933 11.243 7.89933 11.0067 8.05068C10.9268 8.15956 10.8619 8.26795 10.7998 8.38778C10.7714 8.43641 10.743 8.48503 10.7137 8.53511C10.6916 8.5774 10.6695 8.61972 10.6467 8.66329C10.5537 8.8355 10.4571 8.99583 10.3406 9.15308C10.1988 9.34582 10.0838 9.54627 9.96992 9.75649C9.86287 9.95238 9.75164 10.1458 9.64036 10.3393C9.45838 10.6569 9.27833 10.9754 9.10538 11.2981C9.05332 11.395 9 11.4912 8.94514 11.5865C8.91044 11.6492 8.91044 11.6492 8.87505 11.7131C8.85495 11.7482 8.83482 11.7833 8.81407 11.8195C8.72591 12.1229 8.87314 12.403 9.00899 12.6697C9.02689 12.7048 9.04477 12.74 9.06321 12.7762C9.35292 13.3361 9.67134 13.8813 9.98496 14.428C10.0564 14.5559 10.1233 14.6847 10.1876 14.8163C10.228 14.8163 10.2684 14.8163 10.31 14.8163C10.3258 14.8696 10.3416 14.9228 10.3578 14.9775C10.4338 15.1873 10.5268 15.3558 10.6467 15.5434C10.684 15.6026 10.7212 15.6618 10.7596 15.7228C10.7931 15.7671 10.8265 15.8115 10.861 15.8572C10.9014 15.8572 10.9418 15.8572 10.9835 15.8572C11.0024 15.9064 11.0214 15.9557 11.0409 16.0064C11.0915 16.1566 11.0915 16.1566 11.1672 16.2245C11.8583 16.3166 12.5656 16.2952 13.2612 16.2937C13.4506 16.2934 13.64 16.2937 13.8293 16.2941C14.3863 16.2944 14.9434 16.2911 15.5 16.2671C15.5423 16.2659 15.5846 16.2647 15.6283 16.2634C15.8105 16.2536 15.9224 16.2397 16.0704 16.1291C16.1532 16.0204 16.1984 15.9227 16.2488 15.7959C16.3088 15.6932 16.3701 15.5912 16.4325 15.4898C16.5554 15.286 16.6777 15.0819 16.7998 14.8776C16.8377 14.8148 16.8756 14.7521 16.9146 14.6875C16.9714 14.5921 16.9714 14.5921 17.0294 14.4949C17.0644 14.4365 17.0995 14.3781 17.1356 14.318C17.2296 14.1406 17.2929 13.9674 17.3508 13.7755C17.3912 13.7755 17.4316 13.7755 17.4733 13.7755C17.497 13.7275 17.5206 13.6794 17.545 13.6299C17.8373 13.0403 17.8373 13.0403 17.9746 12.8074C18.2425 12.3372 18.2425 12.3372 18.208 11.8163C18.139 11.6618 18.0685 11.5141 17.9899 11.3648C17.9697 11.3256 17.9495 11.2864 17.9288 11.246C17.8794 11.1502 17.8295 11.0546 17.7794 10.9592C17.739 10.9592 17.6986 10.9592 17.6569 10.9592C17.6497 10.9143 17.6425 10.8694 17.6351 10.8231C17.5957 10.6531 17.5417 10.5332 17.4558 10.3821C17.4284 10.3334 17.401 10.2847 17.3727 10.2345C17.344 10.1844 17.3153 10.1345 17.2858 10.0829C17.2569 10.0318 17.2279 9.98057 17.1981 9.92784C17.1269 9.80204 17.0554 9.67646 16.9835 9.55104C16.9431 9.55104 16.9027 9.55104 16.861 9.55104C16.8547 9.51823 16.8484 9.48539 16.8419 9.45157C16.7887 9.26789 16.7045 9.10792 16.6161 8.9388C16.5757 8.9388 16.5353 8.9388 16.4937 8.9388C16.4882 8.9062 16.4828 8.87363 16.4772 8.84003C16.4168 8.64259 16.3178 8.48887 16.2067 8.31509C16.1661 8.24983 16.1254 8.18454 16.0835 8.11731C15.9565 7.94652 15.9564 7.94652 15.7686 7.90851C15.6729 7.9033 15.6729 7.9033 15.5753 7.89798C15.5118 7.89159 15.4483 7.8852 15.3828 7.87861C14.1636 7.79681 12.9227 7.79488 11.7029 7.87121ZM8.30826 8.27752C7.99886 8.35251 7.68576 8.40086 7.37123 8.449C7.40466 8.80748 7.47938 9.11488 7.60465 9.45157C7.621 9.49665 7.63734 9.54176 7.65419 9.58822C7.7773 9.92557 7.90629 10.2605 8.0447 10.5919C8.08511 10.5919 8.12552 10.5919 8.16715 10.5919C8.26521 10.4629 8.26521 10.4629 8.35849 10.301C8.39148 10.2471 8.42447 10.1931 8.45846 10.1375C8.55223 9.97205 8.55223 9.97205 8.5345 9.73472C8.57491 9.73472 8.61532 9.73472 8.65695 9.73472C8.68016 9.68579 8.70336 9.63686 8.72726 9.58646C8.8631 9.31474 9.02518 9.05909 9.18502 8.80104C9.2458 8.70255 9.30654 8.60402 9.36725 8.50545C9.40734 8.44068 9.40734 8.44068 9.44824 8.37458C9.51637 8.26482 9.51637 8.26481 9.57531 8.14288C9.12936 8.11876 8.74063 8.16815 8.30826 8.27752ZM17.5345 8.14288C17.8361 8.74986 18.1738 9.34048 18.5112 9.92821C18.6365 10.1484 18.7588 10.3702 18.8814 10.5919C19.167 10.3691 19.2374 10.0778 19.3444 9.7462C19.3801 9.63862 19.4159 9.53108 19.4518 9.42357C19.4689 9.37224 19.4859 9.32089 19.5035 9.26799C19.5503 9.13562 19.6025 9.00872 19.6599 8.88068C19.7505 8.69948 19.7505 8.69948 19.7386 8.51023C19.4116 8.38983 19.0811 8.32288 18.7399 8.25769C18.6848 8.24657 18.6298 8.23543 18.573 8.22397C18.2204 8.15615 17.8935 8.13191 17.5345 8.14288ZM5.53068 8.95028C5.27594 9.05503 5.0258 9.1485 4.76155 9.22579C3.80234 9.54343 2.72456 10.1348 2.04471 10.898C2.04471 10.9384 2.04471 10.9788 2.04471 11.0204C1.95379 11.0507 1.95379 11.0507 1.86103 11.0817C1.62306 11.38 1.43107 11.7191 1.41548 12.106C1.49311 12.7412 2.04198 13.2916 2.52081 13.6801C2.76355 13.865 3.01469 14.0359 3.26919 14.2041C3.35645 14.2651 3.35645 14.2651 3.44545 14.3273C3.67751 14.4751 3.91614 14.5954 4.16461 14.7131C4.21452 14.7367 4.26443 14.7604 4.31586 14.7848C5.1997 15.2277 5.1997 15.2277 6.14674 15.4286C6.16555 15.3746 6.18434 15.3207 6.20371 15.2651C6.27478 15.0615 6.34614 14.8581 6.41767 14.6547C6.44836 14.5673 6.47892 14.4798 6.50939 14.3924C6.67501 13.9168 6.8472 13.4519 7.06195 12.9958C7.13941 12.829 7.20375 12.6596 7.26409 12.486C7.36685 12.1925 7.36685 12.1925 7.43246 12.0612C7.39396 11.9357 7.39396 11.9357 7.32867 11.796C7.30518 11.7425 7.28167 11.689 7.25748 11.6338C7.23189 11.5766 7.20627 11.5194 7.17992 11.4605C7.12825 11.3424 7.07665 11.2243 7.02517 11.1061C7.00016 11.0488 6.97516 10.9916 6.9494 10.9326C6.65961 10.2628 6.43433 9.57066 6.20797 8.87757C5.93677 8.79617 5.78824 8.84145 5.53068 8.95028ZM20.9018 8.81635C20.8883 8.85612 20.8747 8.89589 20.8608 8.93689C20.7982 9.12002 20.7352 9.30301 20.6723 9.486C20.6509 9.54855 20.6296 9.61109 20.6077 9.67552C20.4927 10.0088 20.3693 10.3329 20.2224 10.6534C20.1441 10.8265 20.0771 11.0034 20.0103 11.1812C19.9294 11.3963 19.8466 11.6059 19.7462 11.8125C19.6475 12.0814 19.6964 12.2731 19.812 12.5317C19.8421 12.5873 19.8721 12.643 19.9031 12.7003C20.3415 13.551 20.6405 14.4683 20.9631 15.3674C21.2786 15.3037 21.5739 15.2334 21.87 15.1033C21.9318 15.0765 21.9937 15.0497 22.0575 15.022C22.1206 14.9946 22.1837 14.9671 22.2488 14.9388C22.3776 14.8864 22.5064 14.8341 22.6353 14.7819C22.9068 14.6685 23.1607 14.5406 23.4121 14.3878C23.4972 14.3395 23.4972 14.3395 23.584 14.2902C24.1392 13.9825 24.1392 13.9825 24.6365 13.5919C24.6365 13.5515 24.6365 13.511 24.6365 13.4694C24.6719 13.4555 24.7073 13.4416 24.7438 13.4273C24.916 13.3268 25.0056 13.1978 25.1263 13.0408C25.1667 13.0206 25.2072 13.0004 25.2488 12.9796C25.2488 12.919 25.2488 12.8584 25.2488 12.7959C25.2892 12.7959 25.3296 12.7959 25.3712 12.7959C25.5676 12.3772 25.6752 12.0954 25.5147 11.6415C25.2818 11.1013 24.8268 10.6509 24.3304 10.347C24.29 10.347 24.2496 10.347 24.208 10.347C24.208 10.3066 24.208 10.2661 24.208 10.2245C24.0516 10.1199 23.8962 10.0237 23.7335 9.92988C23.6859 9.90225 23.6383 9.8746 23.5893 9.84612C23.215 9.63225 22.8366 9.45683 22.4325 9.30614C22.3656 9.27987 22.2988 9.25359 22.2299 9.2265C21.5844 8.94034 21.5844 8.94034 20.9018 8.81635ZM18.9427 13.5306C18.8036 13.7074 18.6928 13.8873 18.5868 14.0855C18.5548 14.1448 18.5229 14.2042 18.4899 14.2653C18.4575 14.3259 18.4251 14.3866 18.3916 14.449C18.1794 14.8439 17.9617 15.2321 17.7244 15.6125C17.6471 15.7293 17.6471 15.7293 17.6569 15.8572C17.6165 15.8572 17.5761 15.8572 17.5345 15.8572C17.5345 15.9178 17.5345 15.9784 17.5345 16.0408C17.9373 16.0551 18.3065 16.0016 18.7016 15.9261C18.76 15.9154 18.8185 15.9047 18.8787 15.8938C19.1916 15.8355 19.4956 15.7672 19.7998 15.6735C19.7212 15.3377 19.6249 15.0195 19.5013 14.6977C19.4852 14.6553 19.469 14.6128 19.4524 14.5691C19.265 14.0089 19.265 14.0089 18.9427 13.5306ZM8.10593 13.5919C7.94843 13.8349 7.84151 14.0864 7.7424 14.3572C7.71872 14.421 7.71872 14.421 7.69455 14.4862C7.55123 14.8775 7.42651 15.2733 7.31001 15.6735C7.54746 15.819 7.80132 15.848 8.0715 15.8916C8.16326 15.907 8.25502 15.9224 8.34676 15.9378C8.41183 15.9484 8.41183 15.9484 8.47822 15.9593C8.57238 15.9756 8.66598 15.995 8.75931 16.0155C8.92776 16.0455 9.08674 16.0467 9.25771 16.0447C9.31746 16.0441 9.37722 16.0436 9.43876 16.043C9.48382 16.0423 9.52888 16.0416 9.57531 16.0408C9.46323 15.8073 9.33343 15.5841 9.20415 15.3597C8.97042 14.9535 8.97042 14.9535 8.90185 14.8163C8.86144 14.8163 8.82103 14.8163 8.7794 14.8163C8.76363 14.7644 8.74783 14.7123 8.73157 14.6588C8.65261 14.4368 8.55446 14.2392 8.44266 14.0319C8.40541 13.9621 8.36816 13.8922 8.32979 13.8203C8.24569 13.6482 8.24569 13.6482 8.10593 13.5919ZM6.94266 16.898C6.52315 18.5017 6.19359 20.557 7.02803 22.0755C7.2374 22.3929 7.4831 22.5747 7.86103 22.6531C8.56141 22.7169 9.19741 22.5328 9.82021 22.2245C9.91043 22.1817 9.91043 22.1817 10.0025 22.1379C10.3554 21.9671 10.6694 21.7849 10.9835 21.551C11.0441 21.5308 11.1047 21.5106 11.1672 21.4898C11.1672 21.4494 11.1672 21.409 11.1672 21.3674C11.2114 21.3522 11.2556 21.3371 11.3011 21.3215C11.4902 21.2374 11.6269 21.1394 11.7794 21C11.7794 20.9596 11.7794 20.9192 11.7794 20.8776C11.8602 20.8574 11.941 20.8372 12.0243 20.8163C12.0243 20.7759 12.0243 20.7355 12.0243 20.6939C12.0849 20.6939 12.1455 20.6939 12.208 20.6939C12.2861 20.6041 12.364 20.5139 12.4356 20.4189C12.5141 20.3266 12.5141 20.3266 12.6978 20.2041C12.6978 20.1637 12.6978 20.1233 12.6978 20.0817C12.6574 20.0817 12.6169 20.0817 12.5753 20.0817C12.5753 20.021 12.5753 19.9604 12.5753 19.898C12.5349 19.898 12.4945 19.898 12.4529 19.898C12.3923 19.7768 12.3923 19.7768 12.3304 19.6531C12.29 19.6531 12.2496 19.6531 12.208 19.6531C12.1932 19.6202 12.1785 19.5873 12.1632 19.5534C12.0651 19.3701 11.9462 19.2109 11.8215 19.0447C11.775 18.9823 11.7285 18.9198 11.6806 18.8555C11.5387 18.6718 11.5387 18.6718 11.3757 18.5157C11.1968 18.3356 11.0754 18.1409 10.9426 17.9261C10.9157 17.8899 10.8888 17.8537 10.861 17.8163C10.8206 17.8163 10.7802 17.8163 10.7386 17.8163C10.7234 17.7696 10.7083 17.7229 10.6927 17.6748C10.6019 17.4797 10.5596 17.43 10.3712 17.3266C10.1734 17.291 9.97474 17.2811 9.77429 17.2692C9.1968 17.2266 8.6328 17.1476 8.06295 17.0455C7.69021 16.9791 7.31998 16.9297 6.94266 16.898ZM19.5893 16.9133C19.2184 16.9922 18.847 17.0593 18.472 17.1161C18.4212 17.1239 18.3703 17.1317 18.3179 17.1397C18.0444 17.18 17.7723 17.2114 17.4967 17.2321C17.413 17.2387 17.413 17.2387 17.3276 17.2455C17.2203 17.2535 17.1129 17.2602 17.0054 17.2655C16.869 17.2756 16.7471 17.2866 16.6161 17.3266C16.4936 17.4723 16.4936 17.4723 16.4325 17.6327C16.3718 17.663 16.3718 17.663 16.31 17.6939C16.2528 17.7961 16.1957 17.8985 16.1397 18.0015C16.0354 18.1707 15.9056 18.3103 15.7695 18.4544C15.6795 18.5556 15.6795 18.5556 15.6978 18.7347C15.6372 18.7549 15.5765 18.7751 15.5141 18.7959C15.3944 18.9416 15.3944 18.9416 15.2769 19.1174C15.0101 19.4966 15.0101 19.4966 14.8444 19.6531C14.7043 19.7702 14.7043 19.7702 14.6569 19.9592C14.566 19.9895 14.566 19.9895 14.4733 20.0204C14.5535 20.4805 15.0505 20.7727 15.3967 21.0438C15.5075 21.1338 15.5075 21.1338 15.6365 21.1225C15.6567 21.1831 15.6769 21.2437 15.6978 21.3061C15.8072 21.395 15.8072 21.395 15.9388 21.4707C15.9823 21.4975 16.0258 21.5242 16.0706 21.5518C16.1837 21.6216 16.1837 21.6216 16.31 21.6123C16.31 21.6527 16.31 21.6931 16.31 21.7347C16.4746 21.8255 16.6395 21.9157 16.8048 22.0052C16.9046 22.0593 17.0042 22.1139 17.1028 22.1702C17.7737 22.5366 18.6352 22.8158 19.394 22.6146C19.8209 22.4346 20.0534 22.0586 20.2399 21.6505C20.6346 20.5688 20.5892 19.3993 20.4541 18.2755C20.4469 18.2156 20.4398 18.1557 20.4324 18.094C20.3523 17.4828 20.3523 17.4828 20.1672 16.898C19.9379 16.8215 19.8246 16.8607 19.5893 16.9133ZM12.1467 17.5102C12.2564 17.7296 12.3701 17.9245 12.5141 18.1225C12.5545 18.1225 12.5949 18.1225 12.6365 18.1225C12.6513 18.1559 12.666 18.1894 12.6813 18.2239C12.7775 18.4015 12.8952 18.5477 13.023 18.7041C13.0695 18.7616 13.116 18.819 13.1639 18.8782C13.3043 19.0345 13.4485 19.1599 13.6161 19.2857C13.7984 19.0964 13.7984 19.0964 13.861 18.8572C13.9216 18.837 13.9823 18.8168 14.0447 18.7959C14.1318 18.6869 14.2142 18.5741 14.2934 18.4592C14.5222 18.1286 14.5222 18.1286 14.6569 18.0612C14.6569 18.0006 14.6569 17.94 14.6569 17.8776C14.7176 17.8574 14.7782 17.8372 14.8406 17.8163C14.8406 17.7557 14.8406 17.6951 14.8406 17.6327C14.881 17.6327 14.9214 17.6327 14.9631 17.6327C14.9631 17.5923 14.9631 17.5519 14.9631 17.5102C14.0337 17.5102 13.1043 17.5102 12.1467 17.5102Z" fill="#ACACAC"/>
<path d="M33.7593 4.59183C40.1739 4.59183 40.1739 4.59183 41.1674 5.38775C41.2865 5.50919 41.3962 5.63377 41.5037 5.76538C41.5921 5.8773 41.5921 5.8773 41.6886 5.96627C42.2278 6.52814 42.3966 7.45194 42.4225 8.20407C42.3895 9.23017 42.0591 10.1288 41.3298 10.858C40.9544 11.2041 40.9544 11.2041 40.7389 11.2041C40.7389 11.2445 40.7389 11.2849 40.7389 11.3265C40.2665 11.55 39.855 11.6825 39.3307 11.6939C39.3731 11.7574 39.3731 11.7574 39.4164 11.8223C39.4563 11.8822 39.4963 11.9421 39.5374 12.0038C39.5817 12.0704 39.6263 12.137 39.6721 12.2057C39.7745 12.3592 39.8766 12.513 39.9787 12.6668C40.0052 12.7067 40.0316 12.7466 40.059 12.7878C40.1105 12.8651 40.1616 12.9425 40.2128 13.0199C40.3348 13.2033 40.4592 13.384 40.589 13.5619C40.7122 13.7328 40.8175 13.9094 40.9198 14.0937C41.0624 14.3399 41.2292 14.5718 41.3903 14.8062C41.596 15.1095 41.596 15.1095 41.596 15.2449C41.6364 15.2449 41.6768 15.2449 41.7185 15.2449C41.7956 15.3573 41.7956 15.3573 41.883 15.5128C42.0505 15.8033 42.2357 16.0743 42.4336 16.345C42.5144 16.4694 42.5144 16.4694 42.5144 16.5918C42.2531 16.6101 41.9923 16.6234 41.7305 16.6322C41.6416 16.6359 41.5529 16.6409 41.4643 16.6472C41.1672 16.6681 40.9056 16.6696 40.6164 16.5918C40.387 16.3788 40.2638 16.1357 40.1266 15.8571C40.0634 15.7555 39.999 15.6545 39.9332 15.5546C39.8739 15.4604 39.8146 15.366 39.7554 15.2717C39.6922 15.1712 39.6287 15.0706 39.5656 14.9701C39.4845 14.841 39.4032 14.7119 39.3221 14.5828C39.1492 14.308 38.9773 14.036 38.7836 13.7755C38.6572 13.5918 38.6572 13.5918 38.6572 13.4082C38.6168 13.4082 38.5764 13.4082 38.5348 13.4082C38.4488 13.285 38.4488 13.285 38.355 13.1212C38.3242 13.0679 38.2933 13.0146 38.2615 12.9597C38.2304 12.9057 38.1993 12.8516 38.1674 12.7959C38.1332 12.7412 38.0991 12.6865 38.0638 12.6302C37.9838 12.4898 37.9838 12.4898 37.9838 12.3673C37.9434 12.3673 37.903 12.3673 37.8613 12.3673C37.6164 11.9541 37.6164 11.9541 37.6164 11.8163C36.8487 11.8163 36.0809 11.8163 35.2899 11.8163C35.2899 13.3922 35.2899 14.9682 35.2899 16.5918C34.7849 16.5918 34.2797 16.5918 33.7593 16.5918C33.7593 12.6318 33.7593 8.67183 33.7593 4.59183ZM35.2899 5.99999C35.2899 7.47489 35.2899 8.94979 35.2899 10.4694C35.7988 10.4719 36.3077 10.4744 36.832 10.477C36.9909 10.4781 37.1499 10.4793 37.3137 10.4804C37.4423 10.4808 37.5709 10.4811 37.6994 10.4813C37.7641 10.482 37.8287 10.4826 37.8954 10.4832C38.5132 10.4834 39.1402 10.4486 39.6981 10.1633C39.6981 10.1228 39.6981 10.0824 39.6981 10.0408C39.8817 9.94897 39.8817 9.94897 40.0654 9.85713C40.0654 9.81673 40.0654 9.77632 40.0654 9.73468C40.1058 9.73468 40.1462 9.73468 40.1878 9.73468C40.5699 9.26453 40.7136 8.81945 40.7122 8.21938C40.7122 8.16584 40.7122 8.11228 40.7122 8.05713C40.6999 7.58257 40.5794 7.25245 40.3103 6.85713C40.2496 6.7662 40.2496 6.7662 40.1878 6.67346C40.1474 6.67346 40.107 6.67346 40.0654 6.67346C40.0654 6.63305 40.0654 6.59264 40.0654 6.55101C39.6165 6.19664 39.0572 5.99181 38.487 5.99304C38.415 5.99304 38.343 5.99306 38.2688 5.99306C38.1557 5.99353 38.1557 5.99353 38.0401 5.99401C37.9705 5.99406 37.901 5.99414 37.8295 5.99419C37.5696 5.99453 37.3098 5.99536 37.0502 5.99617C36.4693 5.99742 35.8884 5.99869 35.2899 5.99999Z" fill="#ACACAC"/>
<path d="M49.6775 8.02043C49.7383 8.04568 49.7987 8.07093 49.8612 8.09696C50.3588 8.38731 50.8031 8.78182 51.1469 9.24492C51.1469 9.28533 51.1469 9.32574 51.1469 9.36737C51.1873 9.36737 51.2277 9.36737 51.2694 9.36737C51.8743 10.51 52.0041 11.4308 52.0041 12.7347C49.7008 12.7347 47.3975 12.7347 45.0245 12.7347C45.3232 13.8107 45.5973 14.6288 46.5666 15.2028C47.5156 15.6839 48.4511 15.6126 49.4326 15.3061C49.607 15.2382 49.7632 15.1592 49.9224 15.0612C49.9895 15.0221 49.9895 15.0221 50.0581 14.9821C50.3062 14.8472 50.3062 14.8472 50.4734 14.6327C50.5342 14.6327 50.5947 14.6327 50.6571 14.6327C50.6571 14.5923 50.6571 14.5519 50.6571 14.5102C50.7179 14.5102 50.7783 14.5102 50.8408 14.5102C50.9172 14.6087 50.9172 14.6087 50.9899 14.7398C51.0813 14.8964 51.1552 15.0084 51.2848 15.1378C51.4043 15.2573 51.4423 15.3217 51.453 15.4898C51.3306 15.6735 51.3306 15.6735 51.1469 15.7347C51.1268 15.7751 51.1065 15.8155 51.0857 15.8572C51.0252 15.8572 50.9645 15.8572 50.902 15.8572C50.8819 15.9178 50.8616 15.9784 50.8408 16.0408C49.6442 16.8517 48.1873 16.9524 46.8 16.7105C45.9333 16.5067 45.1356 16.0224 44.5347 15.3674C44.5347 15.327 44.5347 15.2866 44.5347 15.2449C44.4943 15.2449 44.4539 15.2449 44.4122 15.2449C44.3255 15.1027 44.2403 14.9599 44.1558 14.8163C44.1203 14.7586 44.1203 14.7586 44.0841 14.6996C43.653 13.9589 43.5032 13.1927 43.5152 12.3467C43.5169 12.2102 43.5152 12.074 43.5132 11.9375C43.5103 10.7374 43.9998 9.72842 44.7987 8.84314C46.1566 7.61148 47.976 7.25583 49.6775 8.02043ZM46.0653 9.42859C46.0452 9.48921 46.0249 9.54982 46.0041 9.61227C45.9436 9.63247 45.8828 9.65268 45.8204 9.67349C45.3245 10.2825 45.1104 10.86 45.0245 11.6327C46.8632 11.6327 48.7016 11.6327 50.5959 11.6327C50.5565 11.1965 50.5565 11.1965 50.4504 10.7985C50.4345 10.7536 50.4183 10.7087 50.4019 10.6624C50.3287 10.4731 50.2501 10.2874 50.1673 10.1021C50.1269 10.1021 50.0865 10.1021 50.0449 10.1021C50.0336 10.0604 50.0221 10.0187 50.0103 9.97579C49.7593 9.46264 49.2477 9.16165 48.7229 8.97994C47.7774 8.71594 46.8561 8.80949 46.0653 9.42859Z" fill="#ACACAC"/>
<path d="M59.8406 8.20405C59.8406 8.24446 59.8406 8.28486 59.8406 8.3265C59.8746 8.34038 59.9087 8.35427 59.9439 8.36857C60.4193 8.6384 60.6777 9.13412 60.8417 9.63624C60.9115 9.91704 60.9054 10.1944 60.9022 10.4823C60.9022 10.5818 60.9022 10.5818 60.9025 10.6834C60.9022 10.901 60.9008 11.1187 60.8993 11.3363C60.899 11.4879 60.8988 11.6395 60.8986 11.791C60.8978 12.1887 60.8961 12.5864 60.8941 12.984C60.8922 13.3904 60.8912 13.7967 60.8905 14.203C60.8885 14.9993 60.8851 15.7955 60.8814 16.5918C60.4168 16.5918 59.952 16.5918 59.4732 16.5918C59.4429 16.2281 59.4429 16.2281 59.412 15.8571C59.3515 15.8571 59.2908 15.8571 59.2283 15.8571C59.2056 15.9158 59.2056 15.9158 59.1826 15.9757C59.1059 16.102 59.1059 16.102 58.9759 16.1479C58.9379 16.153 58.8999 16.158 58.861 16.1632C58.861 16.2036 58.861 16.244 58.861 16.2857C58.7802 16.2857 58.6994 16.2857 58.6161 16.2857C58.6161 16.3261 58.6161 16.3665 58.6161 16.4081C57.6301 16.8505 56.5426 16.9835 55.4937 16.653C55.3066 16.5782 55.1239 16.4964 54.9426 16.4081C54.9426 16.3677 54.9426 16.3273 54.9426 16.2857C54.8782 16.2648 54.8782 16.2648 54.8126 16.2436C54.3358 16.0259 54.0277 15.6144 53.7948 15.1568C53.5166 14.3641 53.4769 13.4679 53.7794 12.6734C53.8852 12.4569 53.9954 12.2493 54.1467 12.0612C54.2376 12.0309 54.2376 12.0309 54.3304 12C54.4043 11.8775 54.4043 11.8775 54.4528 11.7551C54.4932 11.7551 54.5337 11.7551 54.5753 11.7551C54.6057 11.6641 54.6057 11.6641 54.6365 11.5714C55.4834 10.9684 56.4728 10.8692 57.4759 11.0318C58.0372 11.1313 58.5688 11.3108 59.0447 11.6326C59.0447 11.673 59.0447 11.7134 59.0447 11.7551C59.0826 11.7728 59.1203 11.7904 59.1595 11.8086C59.2896 11.8775 59.2896 11.8775 59.412 12C59.4157 11.7563 59.4179 11.5127 59.4196 11.2691C59.4213 11.1665 59.4213 11.1665 59.4228 11.0619C59.4353 10.3172 59.4353 10.3172 59.1059 9.67344C59.1059 9.63303 59.1059 9.59262 59.1059 9.55099C59.0655 9.55099 59.0251 9.55099 58.9834 9.55099C58.9362 9.49794 58.9362 9.49794 58.8877 9.44384C58.3396 8.93789 57.602 8.97678 56.9055 8.9948C56.4257 9.01446 56.0677 9.18908 55.647 9.4137C55.4937 9.48976 55.4937 9.48976 55.3712 9.48976C55.3712 9.53017 55.3712 9.57058 55.3712 9.61221C55.3107 9.61221 55.25 9.61221 55.1875 9.61221C55.1674 9.67282 55.1471 9.73344 55.1263 9.79589C54.9502 9.96425 54.9502 9.96425 54.759 10.102C54.6681 10.0717 54.6681 10.0717 54.5753 10.0408C54.5026 9.88388 54.5026 9.88388 54.4528 9.73466C54.4124 9.73466 54.372 9.73466 54.3304 9.73466C54.2755 9.64865 54.2224 9.56174 54.1697 9.47446C54.1399 9.42614 54.11 9.37784 54.0794 9.32808C54.0243 9.18364 54.0243 9.18364 54.0669 9.05353C54.1788 8.89251 54.3074 8.76362 54.4528 8.63262C54.4932 8.63262 54.5337 8.63262 54.5753 8.63262C54.5753 8.59221 54.5753 8.5518 54.5753 8.51017C54.636 8.51017 54.6965 8.51017 54.759 8.51017C54.759 8.46976 54.759 8.42935 54.759 8.38772C56.3557 7.49147 58.1797 7.32981 59.8406 8.20405ZM55.7998 12.4285C55.7998 12.4689 55.7998 12.5094 55.7998 12.551C55.7606 12.5674 55.7214 12.5838 55.6812 12.6007C55.5346 12.6665 55.5346 12.6665 55.4937 12.8571C55.4532 12.8571 55.4128 12.8571 55.3712 12.8571C55.3315 12.9553 55.2921 13.0535 55.2527 13.1517C55.2306 13.2064 55.2086 13.2611 55.1858 13.3175C54.9923 13.8112 55.0411 14.2161 55.2488 14.6938C55.5091 15.145 55.8544 15.4847 56.3525 15.6545C57.2344 15.8826 58.0888 15.6843 58.8879 15.2874C59.0638 15.1709 59.1644 15.0462 59.2896 14.8775C59.3217 14.8514 59.3537 14.8253 59.3868 14.7983C59.5766 14.5689 59.5017 14.1893 59.4999 13.9056C59.5012 13.8331 59.5024 13.7605 59.5039 13.6858C59.5036 13.6158 59.5036 13.5458 59.5036 13.4736C59.5039 13.4097 59.5039 13.3458 59.5039 13.28C59.4441 12.933 59.1676 12.7184 58.8948 12.5196C57.9057 11.9425 56.8095 11.9011 55.7998 12.4285Z" fill="#ACACAC"/>
<path d="M67.3716 7.64537C67.423 7.64512 67.4742 7.6449 67.5271 7.64466C68.0164 7.64539 68.4653 7.65977 68.9176 7.86347C69.007 7.90312 69.007 7.90312 69.0983 7.9436C69.1549 7.96893 69.2112 7.99427 69.2695 8.02036C69.3714 8.06169 69.4733 8.10267 69.5756 8.1428C69.5756 8.18321 69.5756 8.22362 69.5756 8.26525C69.6405 8.28526 69.6405 8.28526 69.7067 8.30569C69.9231 8.40712 70.0701 8.55127 70.2339 8.72062C70.2792 8.76565 70.2792 8.76565 70.3255 8.81162C70.4666 8.95498 70.552 9.05143 70.6164 9.24485C70.5724 9.27896 70.528 9.31305 70.4825 9.34817C70.3089 9.48639 70.3089 9.48639 70.1573 9.6428C70.0118 9.78832 69.8609 9.9152 69.6981 10.0408C69.4924 9.95255 69.3557 9.84196 69.2083 9.67342C69.2083 9.63301 69.2083 9.5926 69.2083 9.55097C69.1275 9.53076 69.0467 9.51056 68.9634 9.48974C68.9634 9.44934 68.9634 9.40893 68.9634 9.36729C68.8615 9.32593 68.7594 9.2853 68.6573 9.24485C68.5892 9.21328 68.5209 9.18171 68.4506 9.14919C68.0661 9.0057 67.6551 9.00859 67.2491 8.99995C67.1945 8.99838 67.1401 8.99679 67.0838 8.99517C66.4209 9.01709 65.8035 9.42754 65.3311 9.86356C65.2294 9.97863 65.1672 10.0843 65.1062 10.2244C65.0658 10.2244 65.0254 10.2244 64.9838 10.2244C64.9762 10.2712 64.9686 10.3179 64.9608 10.366C64.9226 10.5306 64.9226 10.5306 64.8001 10.7142C64.4039 11.5938 64.4771 12.8172 64.8021 13.703C65.1386 14.4616 65.6289 14.9246 66.3613 15.2908C67.026 15.5281 67.9204 15.5304 68.5671 15.2355C68.9222 15.0379 69.1848 14.7935 69.4527 14.4894C69.5756 14.3877 69.5756 14.3877 69.7052 14.3949C69.8815 14.4776 69.9959 14.615 70.1267 14.755C70.2143 14.8433 70.3025 14.9313 70.3907 15.0191C70.4658 15.0944 70.5413 15.1696 70.6164 15.2448C70.12 16.0137 69.356 16.5247 68.4724 16.7451C67.3321 16.9767 66.0293 16.8188 65.022 16.2283C64.3931 15.8077 63.8543 15.249 63.5144 14.5714C63.4916 14.5308 63.4686 14.4902 63.4451 14.4485C62.8811 13.4165 62.863 11.894 63.1471 10.7755C63.1569 10.7321 63.1667 10.6886 63.1767 10.6439C63.3738 9.92784 63.8472 9.14431 64.4328 8.69383C64.4619 8.66353 64.4908 8.63321 64.5207 8.60199C64.6821 8.44726 64.876 8.26525 65.1062 8.26525C65.1062 8.22485 65.1062 8.18444 65.1062 8.1428C65.1601 8.12214 65.214 8.10147 65.2696 8.08016C65.3406 8.05285 65.4119 8.02555 65.4851 7.99741C65.5554 7.97042 65.6257 7.94343 65.6982 7.91561C65.8157 7.87014 65.9325 7.8225 66.0469 7.76924C66.4689 7.62551 66.9307 7.64333 67.3716 7.64537Z" fill="#ACACAC"/>
<path d="M72.6367 5.51019C73.1216 5.51019 73.6065 5.51019 74.1061 5.51019C74.1061 6.27795 74.1061 7.0457 74.1061 7.83672C74.6718 7.83672 75.2375 7.83672 75.8204 7.83672C75.8204 8.28121 75.8204 8.7257 75.8204 9.18366C75.2546 9.18366 74.6889 9.18366 74.1061 9.18366C74.1085 9.92771 74.1119 10.6717 74.1173 11.4157C74.1198 11.7612 74.1217 12.1067 74.1227 12.4522C74.1237 12.7857 74.1257 13.1191 74.1286 13.4526C74.1296 13.5798 74.1301 13.7069 74.1301 13.8341C74.1303 14.0123 74.1318 14.1905 74.134 14.3688C74.1335 14.4212 74.1332 14.4738 74.133 14.5278C74.1386 14.8567 74.195 15.0444 74.4122 15.3061C74.6218 15.4651 74.83 15.4459 75.0857 15.4286C75.3266 15.3723 75.4917 15.3211 75.6979 15.1837C75.8213 15.1803 75.8213 15.1803 75.9428 15.2449C76.0124 15.388 76.0635 15.5156 76.1113 15.6658C76.1248 15.7049 76.1382 15.7439 76.1519 15.7842C76.2107 15.9587 76.2489 16.1005 76.2489 16.2857C76.2085 16.2857 76.1681 16.2857 76.1265 16.2857C76.1265 16.3261 76.1265 16.3665 76.1265 16.4082C75.4748 16.8494 74.7479 16.8994 73.9836 16.7755C73.7926 16.7251 73.617 16.6638 73.4326 16.5918C73.4326 16.5514 73.4326 16.511 73.4326 16.4694C73.3885 16.4567 73.3442 16.4441 73.2986 16.4311C72.9886 16.2795 72.8326 16.0475 72.7207 15.7307C72.6205 15.4152 72.6119 15.1215 72.6159 14.7927C72.6159 14.7013 72.6159 14.7013 72.6159 14.6079C72.6159 14.4082 72.6173 14.2084 72.6188 14.0087C72.619 13.8694 72.6193 13.7302 72.6195 13.591C72.6203 13.2259 72.622 12.8609 72.6242 12.4958C72.6259 12.1228 72.6269 11.7497 72.6276 11.3766C72.6296 10.6456 72.633 9.91466 72.6367 9.18366C72.1719 9.18366 71.7073 9.18366 71.2285 9.18366C71.2285 8.73917 71.2285 8.29468 71.2285 7.83672C71.6933 7.83672 72.1579 7.83672 72.6367 7.83672C72.6367 7.06897 72.6367 6.30121 72.6367 5.51019Z" fill="#ACACAC"/>
<path d="M15.1468 10.2245C15.6675 10.7108 15.914 11.2348 15.9444 11.945C15.9573 12.6307 15.7681 13.1571 15.384 13.7219C15.3461 13.7598 15.3082 13.7977 15.2692 13.8367C15.2086 13.8367 15.148 13.8367 15.0855 13.8367C15.0552 13.9277 15.0552 13.9277 15.0243 14.0204C14.5863 14.3708 14.0886 14.4837 13.5358 14.4796C13.4855 14.4796 13.4353 14.4795 13.3835 14.4795C12.9399 14.4687 12.5976 14.3606 12.208 14.1428C12.208 14.1024 12.208 14.062 12.208 14.0204C12.1272 14.0002 12.0464 13.98 11.9631 13.9592C11.9631 13.9188 11.9631 13.8784 11.9631 13.8367C11.9025 13.8165 11.8419 13.7963 11.7794 13.7755C11.6742 13.664 11.6742 13.664 11.5651 13.523C11.5291 13.4773 11.4931 13.4317 11.4561 13.3847C11.0823 12.8156 11.048 12.1183 11.1404 11.4566C11.2922 10.7824 11.7485 10.2729 12.3113 9.89923C13.2233 9.38243 14.3559 9.58571 15.1468 10.2245Z" fill="#ACACAC"/>
</svg>
