<svg width="147" height="18" viewBox="0 0 147 18" fill="none" xmlns="http://www.w3.org/2000/svg">
<path fill-rule="evenodd" clip-rule="evenodd" d="M45.9118 7.58278H43.2954V12.646C43.2954 14.0027 44.1918 13.9785 45.9118 13.9058V15.965C42.3991 16.3769 41.0182 15.4078 41.0182 12.6703V7.60701H39.0801V5.40243H41.0182V2.56798L43.2954 1.88964V5.40243H45.9118V7.58278ZM55.893 5.37821H58.1703V15.9408H55.893V14.4145C55.0935 15.5289 53.8338 16.2073 52.1864 16.2073C49.3035 16.2073 46.9293 13.7847 46.9293 10.6595C46.9293 7.5101 49.3277 5.11172 52.1864 5.11172C53.8338 5.11172 55.0935 5.79005 55.893 6.88022V5.37821ZM52.5498 14.0512C54.4637 14.0512 55.893 12.646 55.893 10.6595C55.893 8.69718 54.4637 7.26784 52.5498 7.26784C50.6602 7.26784 49.2066 8.67296 49.2066 10.6595C49.2066 12.646 50.6602 14.0512 52.5498 14.0512ZM61.9738 3.80351C61.1743 3.80351 60.5202 3.12518 60.5202 2.34994C60.5202 1.55048 61.1743 0.896378 61.9738 0.896378C62.7732 0.896378 63.4273 1.55048 63.4273 2.34994C63.4515 3.12518 62.7732 3.80351 61.9738 3.80351ZM60.8351 15.9408V5.37821H63.1124V15.9408H60.8351ZM65.753 15.9408V0.508759H68.0303V15.9408H65.753ZM82.8567 5.37821H85.2551L81.9361 15.9408H79.7073L77.5027 8.81831L75.2739 15.9408H73.0451L69.7261 5.37821H72.1245L74.1837 12.6703L76.4125 5.37821H78.5929L80.7974 12.6703L82.8567 5.37821ZM88.1137 3.80351C87.3143 3.80351 86.6602 3.12518 86.6602 2.34994C86.6602 1.55048 87.3143 0.896378 88.1137 0.896378C88.9132 0.896378 89.5673 1.55048 89.5673 2.34994C89.5673 3.12518 88.9132 3.80351 88.1137 3.80351ZM86.9509 15.9408V5.37821H89.2281V15.9408H86.9509ZM97.4408 5.11172C99.815 5.11172 101.511 6.71064 101.511 9.47242V15.965H99.2335V9.69045C99.2335 8.09153 98.3129 7.24362 96.8594 7.24362C95.3573 7.24362 94.1703 8.13998 94.1703 10.2961V15.965H91.893V5.40243H94.1703V6.75909C94.8728 5.64469 96.0115 5.11172 97.4408 5.11172ZM112.316 1.16286H114.593V15.965H112.316V14.4388C111.516 15.5532 110.256 16.2315 108.609 16.2315C105.726 16.2315 103.352 13.8089 103.352 10.6837C103.352 7.53433 105.75 5.13595 108.609 5.13595C110.256 5.13595 111.516 5.81428 112.316 6.90445V1.16286ZM108.997 14.0512C110.911 14.0512 112.34 12.646 112.34 10.6595C112.34 8.69718 110.911 7.26784 108.997 7.26784C107.107 7.26784 105.653 8.67296 105.653 10.6595C105.653 12.646 107.083 14.0512 108.997 14.0512ZM122.248 16.2315C119.05 16.2315 116.676 13.8089 116.676 10.6837C116.676 7.53433 119.075 5.13595 122.248 5.13595C124.332 5.13595 126.125 6.20189 126.972 7.8735L125.01 9.01213C124.55 8.01886 123.508 7.38897 122.248 7.38897C120.383 7.38897 118.978 8.79409 118.978 10.708C118.978 12.6218 120.383 14.0269 122.248 14.0269C123.508 14.0269 124.55 13.3728 125.059 12.4038L127.021 13.5182C126.125 15.1413 124.332 16.2315 122.248 16.2315ZM130.776 8.30956C130.776 10.2234 136.469 9.06058 136.469 12.9852C136.469 15.0929 134.628 16.2315 132.351 16.2315C130.243 16.2315 128.717 15.2867 128.038 13.7604L130.001 12.6218C130.34 13.5666 131.188 14.1481 132.351 14.1481C133.368 14.1481 134.143 13.8089 134.143 12.961C134.143 11.0713 128.45 12.1373 128.45 8.35802C128.45 6.37148 130.17 5.13595 132.326 5.13595C134.071 5.13595 135.5 5.9354 136.227 7.34052L134.313 8.40647C133.925 7.58279 133.199 7.19517 132.326 7.19517C131.503 7.17094 130.776 7.53433 130.776 8.30956ZM140.515 8.30956C140.515 10.2234 146.208 9.06058 146.208 12.9852C146.208 15.0929 144.367 16.2315 142.09 16.2315C139.982 16.2315 138.456 15.2867 137.777 13.7604L139.74 12.6218C140.079 13.5666 140.927 14.1481 142.09 14.1481C143.107 14.1481 143.882 13.8089 143.882 12.961C143.882 11.0713 138.189 12.1373 138.189 8.35802C138.189 6.37148 139.909 5.13595 142.065 5.13595C143.81 5.13595 145.239 5.9354 145.966 7.34052L144.052 8.40647C143.664 7.58279 142.937 7.19517 142.065 7.19517C141.242 7.17094 140.515 7.53433 140.515 8.30956Z" fill="#ACACAC"/>
<path fill-rule="evenodd" clip-rule="evenodd" d="M15.8718 0C11.8744 0 9.35493 2.01076 8.36166 6.00807C9.86368 3.99731 11.608 3.2463 13.6187 3.75505C14.7573 4.04576 15.581 4.86945 16.4774 5.79004C17.9552 7.29206 19.651 9.01212 23.3818 9.01212C27.3792 9.01212 29.8987 7.00135 30.8919 3.00404C29.3899 5.0148 27.6456 5.76582 25.6349 5.25707C24.4963 4.96636 23.6726 4.14266 22.7762 3.22207C21.2984 1.72005 19.6026 0 15.8718 0ZM8.36166 8.98789C4.36435 8.98789 1.84483 10.9987 0.851562 14.996C2.35358 12.9852 4.09786 12.2342 6.10863 12.7429C7.24726 13.0337 8.07094 13.8573 8.96731 14.7779C10.4451 16.2799 12.1409 18 15.8718 18C19.8691 18 22.3886 15.9892 23.3818 11.9919C21.8798 14.0027 20.1355 14.7537 18.1248 14.245C16.9862 13.9542 16.1625 13.1306 15.2661 12.21C13.7883 10.7322 12.0925 8.98789 8.36166 8.98789Z" fill="#ACACAC"/>
</svg>
