<svg width="884" height="1141" viewBox="0 0 884 1141" fill="none" xmlns="http://www.w3.org/2000/svg">
<path fill-rule="evenodd" clip-rule="evenodd" d="M-40.0386 23.7245C-0.902176 43.874 36.0472 62.9088 79.3199 70.4429C124.902 78.371 170.654 71.5016 214.886 64.8462C226.65 63.0775 238.813 61.2528 250.784 59.7364C310.056 52.1931 354.234 56.9672 393.969 75.1793C432.945 93.0442 467.193 123.321 490.383 160.436C509.077 190.366 518.938 224.946 528.476 258.393C533.38 275.615 538.46 293.415 544.676 310.364C549.119 322.483 554.291 334.93 559.271 346.965C575.923 387.199 593.166 428.789 590.88 472.185C587.319 539.296 545.88 589.814 505.785 638.678C482.05 667.613 457.486 697.544 440.657 730.842C409.148 793.262 398.957 848.202 410.368 894.133C413.047 904.912 416.247 915.454 419.339 925.635C431.74 966.529 443.473 1005.16 416.845 1047.43C406.47 1063.9 394.852 1079.47 383.633 1094.52C370.457 1112.19 356.989 1130.27 345.41 1150H347.658C359.054 1130.74 372.26 1113.02 385.168 1095.7C396.433 1080.62 408.059 1065 418.48 1048.48C445.568 1005.44 433.728 966.399 421.181 925.075C418.104 914.909 414.919 904.406 412.241 893.665C400.945 848.202 411.097 793.715 442.384 731.722C459.112 698.61 483.6 668.775 507.281 639.912C547.561 590.806 589.207 540.036 592.79 472.287C595.108 428.452 577.803 386.647 561.051 346.217C556.071 334.2 550.914 321.772 546.494 309.689C540.294 292.807 535.237 275.043 530.326 257.861C520.749 224.282 510.865 189.56 492.01 159.407C468.613 121.973 434.088 91.435 394.775 73.4198C354.687 55.039 310.21 50.2282 250.538 57.8082C238.552 59.3247 226.373 61.1585 214.602 62.928C170.5 69.5543 124.918 76.4045 79.6576 68.5247C36.6612 61.0382 -0.173164 42.0762 -39.1562 21.9934C-44.8348 19.0724 -50.5134 16.1437 -56.2304 13.2419C-65.1243 8.74153 -74.1718 4.25883 -83.365 0H-88C-77.5176 4.76253 -67.204 9.8555 -57.0899 14.9822C-51.3729 17.8748 -45.6942 20.8035 -40.0386 23.7245Z" fill="#6F6F6F"/>
<path fill-rule="evenodd" clip-rule="evenodd" d="M429.821 1119.23C421.186 1129.24 412.405 1139.44 404 1150H406.492C414.575 1139.91 422.988 1130.12 431.278 1120.5C447.099 1102.16 463.449 1083.2 476.999 1062.57C506.171 1018.21 508.963 973.943 486.064 919.042C467.475 874.498 448.264 828.452 461.347 775.315C475.243 718.9 511.915 674.502 547.384 631.565C576.717 596.02 607.047 559.278 624.608 515.76C644.44 466.635 642.231 410.353 618.075 348.5C616.503 344.457 614.892 340.423 613.305 336.38C605.229 315.988 596.886 294.893 591.134 273.349C586.287 255.231 583.979 236.363 581.771 218.115C580.988 211.723 580.183 205.106 579.286 198.601C575.444 171.068 567.361 146.36 553.036 118.481C542.644 98.2292 527.529 80.9523 512.912 64.249C506.808 57.2754 500.497 50.0687 494.638 42.7608C484.975 30.7073 475.143 16.228 471.608 0H469.607C473.142 16.7417 483.219 31.6043 493.142 43.976C499.016 51.3222 505.343 58.5488 511.448 65.5293C525.995 82.1499 541.034 99.3332 551.325 119.379C565.52 147.054 573.55 171.574 577.353 198.873C578.274 205.359 579.079 211.966 579.846 218.349C582.093 236.664 584.393 255.604 589.263 273.856C595.045 295.512 603.412 316.652 611.502 337.101C613.098 341.134 614.708 345.169 616.28 349.211C640.245 410.586 642.454 466.373 622.829 515.029C605.383 558.267 575.145 594.897 545.881 630.31C510.29 673.435 473.479 718 459.476 774.847C446.217 828.606 465.58 874.966 484.285 919.793C506.915 974.019 504.17 1017.72 475.412 1061.5C461.915 1082.02 445.603 1100.93 429.821 1119.23Z" fill="#6F6F6F"/>
<path fill-rule="evenodd" clip-rule="evenodd" d="M186.332 203.6C171.336 203.6 155.481 204.376 137.886 205.966C90.552 210.253 57.7616 224.553 37.6366 249.699C12.9346 280.585 13.7013 322.652 17.1206 355.846C18.0406 364.588 19.0526 373.386 20.0416 381.901C24.2583 418.026 28.222 452.138 24.611 488.386C22.817 506.494 19.3363 524.726 15.963 542.357C9.80664 574.532 3.45864 607.812 7.18464 641.278C26.9723 725.544 134.635 732.115 167.165 732.115C170.983 732.115 174.816 732.04 178.581 731.889C281.452 727.752 360.273 649.945 410.62 591.781C453.331 542.422 468.948 496.808 459.771 448.226C450.602 399.571 421.085 350.541 393.424 308.997C363.792 264.496 323.994 232.685 278.362 217.02C252.05 207.989 221.951 203.6 186.332 203.6ZM167.165 734.06C130.442 734.06 95.382 727.116 68.4873 714.519C34.1406 698.441 12.881 673.921 5.29863 641.616C1.49596 607.736 7.89763 574.318 14.077 541.991C17.4273 524.398 20.908 506.212 22.702 488.189C26.2746 452.157 22.3263 418.138 18.1326 382.126C17.1436 373.61 16.1163 364.803 15.2116 356.053C11.754 322.483 10.9873 279.919 36.1416 248.484C56.5963 222.907 89.8236 208.362 137.702 204.029C155.374 202.429 171.259 201.652 186.332 201.652C222.173 201.652 252.48 206.08 278.983 215.176C325.029 230.983 365.157 263.055 395.034 307.92C422.787 349.623 452.419 398.868 461.68 447.861C470.964 497.08 455.209 543.218 412.061 593.053C361.492 651.498 282.272 729.661 178.657 733.836C174.855 733.985 171.006 734.06 167.165 734.06Z" fill="#6F6F6F"/>
<path fill-rule="evenodd" clip-rule="evenodd" d="M177.423 244.544C145.698 244.544 119.08 251.365 98.2799 264.833C70.9405 282.559 58.3595 313.854 60.8895 357.849C61.4875 363.446 62.0855 369.071 62.6989 374.694C68.4642 428.386 74.4365 483.92 70.4882 539.475C66.5399 594.972 78.8372 632.294 108.093 653.576C131.04 670.291 157.076 678.751 185.488 678.751C269.944 678.751 346.511 606.707 367.986 584.612C410.865 540.485 427.862 500.103 421.476 457.549C415.074 414.852 388.962 365.645 349.846 322.539C314.227 283.269 269.845 257.757 221.522 248.745C206.526 245.956 191.683 244.544 177.423 244.544ZM185.511 680.696C185.488 680.696 185.511 680.696 185.488 680.696C156.662 680.696 130.25 672.106 106.966 655.166C77.1122 633.435 64.5542 595.553 68.5562 539.335C72.4892 483.948 66.8005 430.978 60.7745 374.901C60.1765 369.276 59.5785 363.651 58.9729 358.008C56.3969 313.218 69.2692 281.322 97.2525 263.194C118.351 249.531 145.323 242.596 177.423 242.596C191.813 242.596 206.771 244.028 221.859 246.836C270.611 255.923 315.369 281.65 351.265 321.229C390.648 364.605 416.93 414.19 423.385 457.257C429.863 500.467 412.698 541.364 369.366 585.979C347.769 608.185 270.688 680.696 185.511 680.696Z" fill="#6F6F6F"/>
<path fill-rule="evenodd" clip-rule="evenodd" d="M131.208 396.64C134.206 417.313 136.115 438.437 137.947 458.867C139.964 481.487 142.064 504.875 145.66 527.561C149.21 549.957 161.062 588.859 200.523 597.816C207.047 599.296 213.939 600.062 220.977 600.062C274.491 600.062 336.744 555.879 356.923 503.583C383.235 435.35 314.771 368.462 270.167 339.693C251.445 327.622 222.679 313.228 191.905 313.228C180.436 313.228 169.503 315.295 159.452 319.357C130.909 330.905 129.882 365.27 131.208 396.64ZM221 607.83C220.977 607.83 220.977 607.83 220.977 607.83C213.357 607.83 205.912 607.006 198.836 605.396C154.921 595.439 141.896 553.119 138.039 528.777C134.405 505.829 132.289 482.312 130.25 459.569C128.418 439.177 126.532 418.092 123.549 397.568L123.511 397.175C122.392 370.83 120.498 326.732 156.57 312.15C167.556 307.715 179.439 305.459 191.905 305.459C224.535 305.459 254.741 320.518 274.322 333.151C320.912 363.193 392.243 433.486 364.106 506.4C342.9 561.384 277.35 607.83 221 607.83Z" fill="#6F6F6F"/>
<path fill-rule="evenodd" clip-rule="evenodd" d="M453.457 1150C457.434 1144.83 461.441 1139.8 465.372 1134.93C469.426 1129.95 473.549 1124.97 477.687 1119.95C501.833 1090.79 526.815 1060.63 539.338 1024.35C556.512 974.575 536.435 932.418 515.176 887.799L512.159 881.449C489.725 834.13 485.28 791.596 498.539 751.412C512.389 709.434 541.211 673.71 567.176 643.528C573.326 636.374 579.66 629.184 585.802 622.238C607.813 597.336 630.546 571.591 648.32 542.504C651.637 537.073 654.992 531.374 658.232 525.85C678.162 491.95 698.761 456.891 734.462 440.461C748.112 434.178 762.991 430.491 777.41 426.933C787.398 424.452 797.724 421.896 807.605 418.48C824.68 412.592 841.363 405.065 857.502 397.79C867.866 393.108 878.584 388.269 889.294 383.925C945.033 361.27 996.787 358.892 1043.14 376.847C1051.91 380.247 1061.55 384.72 1070 390.328V388.035C1062.77 383.345 1054.03 378.981 1043.84 375.031C997.01 356.888 944.772 359.276 888.58 382.118C877.816 386.48 867.075 391.331 856.695 396.01C840.611 403.275 823.966 410.774 806.984 416.645C797.179 420.033 786.891 422.58 776.934 425.042C762.454 428.628 747.475 432.334 733.663 438.692C697.387 455.374 676.642 490.696 656.566 524.856C653.326 530.371 649.986 536.073 646.669 541.483C628.988 570.431 606.309 596.102 584.366 620.947C578.216 627.894 571.86 635.101 565.717 642.255C539.645 672.586 510.662 708.48 496.697 750.795C483.276 791.497 487.76 834.505 510.416 882.269L513.434 888.642C534.501 932.878 554.432 974.69 537.503 1023.71C525.096 1059.68 500.236 1089.69 476.213 1118.72C472.067 1123.71 467.921 1128.71 463.875 1133.71C459.622 1138.95 455.292 1144.4 451 1150H453.457Z" fill="#6F6F6F"/>
<path fill-rule="evenodd" clip-rule="evenodd" d="M512.768 1120.72C505.122 1130.3 497.415 1140.02 490 1150H499.678C505.95 1141.72 512.392 1133.59 518.795 1125.56C527.368 1114.76 536.264 1103.6 544.446 1092.34C573.816 1051.97 610.364 1001.75 594.483 947.703C587.857 925.176 575.258 905.219 563.05 885.913C546.892 860.295 531.617 836.12 528.549 806.007C519.616 718.599 593.103 650.082 652.15 595.008L656.904 590.571C693.184 556.707 726.848 527.428 771.609 511.99C791.31 505.2 812.39 501.792 832.758 498.496C836.86 497.833 840.955 497.168 845.042 496.485C846.515 496.242 848.187 495.931 850.019 495.605C864.681 492.946 891.973 487.992 904.465 496.794C907.932 499.247 909.987 502.598 910.754 507.045C913.054 520.546 907.349 537.456 902.288 552.371C901.076 555.937 899.933 559.308 898.936 562.511C892.365 583.812 884.428 605.29 874.673 628.191C858.462 666.278 838.172 706.146 810.803 753.635C804.17 765.095 796.585 777.022 788.534 789.639C750.498 849.381 707.378 917.092 736.12 985.179C752.837 1024.82 782.437 1062.49 806.34 1090.88C825.342 1113.44 845.134 1133.23 865.448 1150H877.825C855.242 1132.31 833.264 1110.84 812.221 1085.85C788.672 1057.89 759.539 1020.81 743.213 982.126C716.066 917.821 758.021 851.958 795.052 793.835C803.119 781.141 810.757 769.16 817.459 757.529C845.004 709.76 865.425 669.649 881.774 631.263C891.621 608.117 899.65 586.376 906.314 564.823C907.272 561.714 908.392 558.402 909.596 554.881C914.948 539.084 921.014 521.183 918.353 505.725C917.233 499.217 914.051 494.069 908.882 490.426C893.753 479.772 865.525 484.894 848.654 487.945C846.852 488.272 845.211 488.573 843.77 488.817C839.705 489.5 835.626 490.165 831.538 490.819C810.833 494.172 789.438 497.626 769.125 504.631C722.914 520.565 688.583 550.396 651.659 584.869L646.905 589.307C586.6 645.55 511.548 715.547 520.873 806.812C524.125 838.743 540.604 864.844 556.555 890.07C568.448 908.923 580.764 928.436 587.075 949.912C601.883 1000.25 566.593 1048.77 538.204 1087.76C530.121 1098.86 521.303 1109.96 512.768 1120.72Z" fill="#6F6F6F"/>
<path fill-rule="evenodd" clip-rule="evenodd" d="M759.745 583.872C730.673 583.872 702.206 600.699 675.795 618.892C595.341 674.297 556.11 731.889 559.185 790.142C563.654 826.337 586.562 863.811 617.543 885.5C628.062 892.86 640.62 900.404 654.113 900.404C657.264 900.404 660.385 899.975 663.398 899.17C680.456 894.524 692.769 879.612 703.663 866.449C753.788 805.844 806.212 733.35 815.819 654.362C818.924 628.832 811.142 595.758 778.965 586.531C772.809 584.761 766.346 583.872 759.745 583.872ZM654.113 902.329C640.099 902.329 627.203 894.639 616.439 887.095C585.029 865.099 561.799 827.103 557.253 790.303C554.148 731.271 593.677 673.099 674.706 617.283C701.378 598.92 730.128 581.925 759.745 581.925C766.514 581.925 773.161 582.843 779.486 584.659C812.844 594.222 820.925 628.308 817.728 654.586C808.068 734.099 755.451 806.856 705.25 867.553C694.08 881.069 681.537 896.249 663.911 901.041C660.722 901.899 657.433 902.329 654.113 902.329Z" fill="#6F6F6F"/>
<path fill-rule="evenodd" clip-rule="evenodd" d="M711.767 669.879C694.172 669.879 675.342 679.856 668.082 684.16C635.514 703.365 605.806 741.212 612.867 782.406C619.284 804.065 633.659 816.048 653.347 816.048C670.42 816.048 689.38 806.48 702.858 791.093C738.155 750.72 751.112 716.822 741.345 690.357C736.323 676.767 726.364 669.879 711.767 669.879ZM653.347 817.987C632.739 817.987 617.689 805.506 610.988 782.859C603.751 740.631 633.958 702.035 667.108 682.475C674.499 678.096 693.689 667.932 711.767 667.932C727.261 667.932 737.818 675.252 743.139 689.682C753.19 716.86 740.103 751.412 704.299 792.365C690.484 808.166 670.965 817.987 653.347 817.987Z" fill="#6F6F6F"/>
<path fill-rule="evenodd" clip-rule="evenodd" d="M538.362 1150C556.224 1124.36 576.034 1100.12 595.338 1076.55L597.546 1073.86C599.119 1071.95 600.714 1069.98 602.355 1067.94C619.749 1046.42 641.377 1019.61 669.6 1018.02C702.079 1016.2 730.395 1048.64 747.282 1068.03C756.064 1078.1 764.868 1088.41 773.381 1098.37C787.968 1115.45 802.946 1132.98 818.377 1150H821C805.178 1132.59 789.801 1114.61 774.846 1097.1C766.325 1087.13 757.506 1076.82 748.74 1066.76C731.606 1047.09 702.908 1014.15 669.485 1016.08C640.426 1017.72 618.484 1044.87 600.86 1066.69C599.234 1068.74 597.623 1070.71 596.066 1072.62L593.857 1075.32C574.232 1099.26 554.107 1123.87 536 1150H538.362Z" fill="#6F6F6F"/>
<path fill-rule="evenodd" clip-rule="evenodd" d="M2.72335 1150C49.1733 1103.08 109.875 1067.33 174.715 1048.95C206.225 1040.01 249.049 1033.2 274.041 1051.42C286.923 1060.83 293.931 1076.15 294.864 1096.97C295.667 1114.74 294.152 1132.46 291.498 1150H293.441C296.08 1132.46 297.587 1114.7 296.784 1096.88C295.835 1075.44 288.553 1059.61 275.158 1049.84C249.554 1031.15 206.11 1038.02 174.195 1047.07C108.414 1065.72 46.8401 1102.16 0 1150H2.72335Z" fill="#6F6F6F"/>
<path fill-rule="evenodd" clip-rule="evenodd" d="M585.431 1150C607.336 1121.85 636.09 1100.18 660.465 1094.53C700.096 1085.36 734.804 1118.16 760.501 1150H763C736.898 1117.36 701.257 1083.07 660.037 1092.63C634.913 1098.43 605.28 1120.93 583 1150H585.431Z" fill="#6F6F6F"/>
<path fill-rule="evenodd" clip-rule="evenodd" d="M53.1237 1150C78.4558 1134.5 105.306 1123.41 132.033 1118.32C181.954 1108.81 213.862 1119.48 226.908 1150H229C215.771 1117.94 183.042 1106.63 131.672 1116.4C103.98 1121.66 75.8191 1133.24 49 1150H53.1237Z" fill="#6F6F6F"/>
</svg>
